<?xml version="1.0" encoding="UTF-8"?>
<svg xmlns="http://www.w3.org/2000/svg" width="1080" height="1440" viewBox="0 0 1080 1440" role="img" aria-label="AFTER MIDNIGHT Hero poster">
  <title>AFTER MIDNIGHT - Hero poster</title>
  <desc>Original commercial portfolio visual for AFTER MIDNIGHT.</desc>
  <rect x="0" y="0" width="1080" height="1440" fill="#050509"/><rect x="0" y="0" width="280.8" height="43.199999999999996" fill="#732cff" opacity="0.86" transform="rotate(9 540 720)"/><rect x="89" y="137" width="280.8" height="43.199999999999996" fill="#ff235a" opacity="0.86" transform="rotate(-7 540 720)"/><rect x="178" y="274" width="280.8" height="43.199999999999996" fill="#732cff" opacity="0.86" transform="rotate(9 540 720)"/><rect x="267" y="411" width="280.8" height="43.199999999999996" fill="#ff235a" opacity="0.86" transform="rotate(-7 540 720)"/><rect x="356" y="548" width="280.8" height="43.199999999999996" fill="#732cff" opacity="0.86" transform="rotate(9 540 720)"/><rect x="445" y="685" width="280.8" height="43.199999999999996" fill="#ff235a" opacity="0.86" transform="rotate(-7 540 720)"/><rect x="534" y="822" width="280.8" height="43.199999999999996" fill="#732cff" opacity="0.86" transform="rotate(9 540 720)"/><rect x="623" y="959" width="280.8" height="43.199999999999996" fill="#ff235a" opacity="0.86" transform="rotate(-7 540 720)"/><rect x="712" y="1096" width="280.8" height="43.199999999999996" fill="#732cff" opacity="0.86" transform="rotate(9 540 720)"/><rect x="801" y="1233" width="280.8" height="43.199999999999996" fill="#ff235a" opacity="0.86" transform="rotate(-7 540 720)"/><rect x="890" y="1370" width="280.8" height="43.199999999999996" fill="#732cff" opacity="0.86" transform="rotate(9 540 720)"/><rect x="979" y="67" width="280.8" height="43.199999999999996" fill="#ff235a" opacity="0.86" transform="rotate(-7 540 720)"/><rect x="1068" y="204" width="280.8" height="43.199999999999996" fill="#732cff" opacity="0.86" transform="rotate(9 540 720)"/><rect x="77" y="341" width="280.8" height="43.199999999999996" fill="#ff235a" opacity="0.86" transform="rotate(-7 540 720)"/><text x="108" y="547.2" font-size="129.6" fill="#f1f1eb" font-family="Inter, Arial, sans-serif" font-weight="900" letter-spacing="-2">AFTER MIDNIGHT</text><text x="108" y="979.2" font-size="28.08" fill="#ff235a" font-family="Inter, Arial, sans-serif" font-weight="900" letter-spacing="3">DATE / LOCATION / LINEUP / ACCESS</text>
</svg>
