<?xml version="1.0" encoding="UTF-8"?>
<svg xmlns="http://www.w3.org/2000/svg" width="1200" height="1200" viewBox="0 0 1200 1200" role="img" aria-label="AFTER MIDNIGHT Feed announcement">
  <title>AFTER MIDNIGHT - Feed announcement</title>
  <desc>Original portfolio concept visual for AFTER MIDNIGHT.</desc>
  <rect x="0" y="0" width="1200" height="1200" fill="#030303"/><rect x="60" y="120" width="10" height="936" fill="#ff2d55" opacity="0.45"/><rect x="150" y="120" width="10" height="936" fill="#4f46e5" opacity="0.45"/><rect x="240" y="120" width="10" height="936" fill="#ff2d55" opacity="0.45"/><rect x="329.99999999999994" y="120" width="10" height="936" fill="#4f46e5" opacity="0.45"/><rect x="420" y="120" width="10" height="936" fill="#ff2d55" opacity="0.45"/><rect x="510" y="120" width="10" height="936" fill="#4f46e5" opacity="0.45"/><rect x="599.9999999999999" y="120" width="10" height="936" fill="#ff2d55" opacity="0.45"/><rect x="690.0000000000001" y="120" width="10" height="936" fill="#4f46e5" opacity="0.45"/><rect x="780" y="120" width="10" height="936" fill="#ff2d55" opacity="0.45"/><rect x="870" y="120" width="10" height="936" fill="#4f46e5" opacity="0.45"/><rect x="960" y="120" width="10" height="936" fill="#ff2d55" opacity="0.45"/><rect x="1050" y="120" width="10" height="936" fill="#4f46e5" opacity="0.45"/><text x="108" y="384" font-size="156" fill="#f5f0e8" font-family="Inter, Arial, sans-serif" font-weight="900" letter-spacing="-2">AFTER</text><text x="96" y="576" font-size="120" fill="#f5f0e8" font-family="Inter, Arial, sans-serif" font-weight="900" letter-spacing="-2">MIDNIGHT</text><text x="120" y="708" font-size="42.00000000000001" fill="#9bff00" font-family="Inter, Arial, sans-serif" font-weight="800" letter-spacing="4">03 / 11 / 26</text><text x="120" y="792" font-size="28.8" fill="#f5f0e8" font-family="Inter, Arial, sans-serif" font-weight="800" letter-spacing="3">WAREHOUSE 17, BERLIN</text><text x="120" y="876" font-size="25.200000000000003" fill="#ff2d55" font-family="Inter, Arial, sans-serif" font-weight="800" letter-spacing="2">NOCTRA  /  VELA  /  SAINT INDEX</text><rect x="696" y="336.00000000000006" width="336.00000000000006" height="336.00000000000006" fill="none" stroke="#9bff00" stroke-width="8" transform="rotate(11 864 504)"/><text x="72" y="1108" font-size="22" fill="#f5f0e8" font-family="Inter, Arial, sans-serif" font-weight="700" letter-spacing="3" opacity="0.7">CONCEPT PROJECT</text><text x="72" y="1146" font-size="30" fill="#f5f0e8" font-family="Inter, Arial, sans-serif" font-weight="500" opacity="0.86">Feed announcement</text>
</svg>
