<?xml version="1.0" encoding="UTF-8"?>
<svg xmlns="http://www.w3.org/2000/svg" width="1080" height="1440" viewBox="0 0 1080 1440" role="img" aria-label="NO SIGNAL Poster series cover">
  <title>NO SIGNAL - Poster series cover</title>
  <desc>Original portfolio concept visual for NO SIGNAL.</desc>
  <rect x="0" y="0" width="1080" height="1440" fill="#f1efea"/><rect x="0" y="0" width="110" height="16" fill="#e84a27" opacity="0.9"/><rect x="83" y="137" width="150" height="38" fill="#111111" opacity="0.78"/><rect x="166" y="274" width="190" height="60" fill="#e84a27" opacity="0.9"/><rect x="249" y="411" width="230" height="16" fill="#111111" opacity="0.78"/><rect x="332" y="548" width="110" height="38" fill="#e84a27" opacity="0.9"/><rect x="415" y="685" width="150" height="60" fill="#111111" opacity="0.78"/><rect x="498" y="822" width="190" height="16" fill="#e84a27" opacity="0.9"/><rect x="581" y="959" width="230" height="38" fill="#111111" opacity="0.78"/><rect x="664" y="1096" width="110" height="60" fill="#e84a27" opacity="0.9"/><rect x="747" y="1233" width="150" height="16" fill="#111111" opacity="0.78"/><rect x="830" y="1370" width="190" height="38" fill="#e84a27" opacity="0.9"/><rect x="913" y="67" width="230" height="60" fill="#111111" opacity="0.78"/><rect x="996" y="204" width="110" height="16" fill="#e84a27" opacity="0.9"/><rect x="1079" y="341" width="150" height="38" fill="#111111" opacity="0.78"/><rect x="82" y="478" width="190" height="60" fill="#e84a27" opacity="0.9"/><rect x="165" y="615" width="230" height="16" fill="#111111" opacity="0.78"/><rect x="248" y="752" width="110" height="38" fill="#e84a27" opacity="0.9"/><rect x="331" y="889" width="150" height="60" fill="#111111" opacity="0.78"/><text x="86.4" y="460.8" font-size="205.2" fill="#111111" font-family="Inter, Arial, sans-serif" font-weight="900" letter-spacing="-4">NO</text><text x="75.60000000000001" y="748.8000000000001" font-size="151.20000000000002" fill="#111111" font-family="Inter, Arial, sans-serif" font-weight="900" letter-spacing="-4">SIGNAL</text><text x="97.2" y="950.4000000000001" font-size="23.759999999999998" fill="#2b2b2b" font-family="Inter, Arial, sans-serif" font-weight="800" letter-spacing="3">MESSAGE LOST / THREAD CLOSED / STATIC OPEN</text><rect x="108" y="1051.2" width="756" height="18" fill="#e84a27"/><rect x="108" y="1123.2" width="561.6" height="18" fill="#111111"/><text x="72" y="1348" font-size="22" fill="#111111" font-family="Inter, Arial, sans-serif" font-weight="700" letter-spacing="3" opacity="0.7">CONCEPT PROJECT</text><text x="72" y="1386" font-size="30" fill="#111111" font-family="Inter, Arial, sans-serif" font-weight="500" opacity="0.86">Poster series cover</text>
</svg>
