<?xml version="1.0" encoding="UTF-8"?>
<svg xmlns="http://www.w3.org/2000/svg" width="1600" height="1100" viewBox="0 0 1600 1100" role="img" aria-label="FORM / 26 Image-led spread">
  <title>FORM / 26 - Image-led spread</title>
  <desc>Original commercial portfolio visual for FORM / 26.</desc>
  <rect x="0" y="0" width="1600" height="1100" fill="#f7f5ef"/><rect x="96" y="110" width="640" height="858" fill="#fff" stroke="#bbb" stroke-width="1"/><rect x="864" y="110" width="640" height="858" fill="#fff" stroke="#bbb" stroke-width="1"/><text x="160" y="220" font-size="64" fill="#111" font-family="Cormorant Garamond, Georgia, serif" font-weight="700">Image-led spread</text><rect x="160" y="341" width="416" height="5" fill="#333" opacity="0.55"/><rect x="927.9999999999999" y="275" width="400" height="5" fill="#333" opacity="0.5"/><rect x="160" y="390.5" width="480" height="5" fill="#333" opacity="0.55"/><rect x="927.9999999999999" y="330" width="448.00000000000006" height="5" fill="#333" opacity="0.5"/><rect x="160" y="440" width="544" height="5" fill="#333" opacity="0.55"/><rect x="927.9999999999999" y="385" width="496" height="5" fill="#333" opacity="0.5"/><rect x="160" y="489.5" width="416" height="5" fill="#333" opacity="0.55"/><rect x="927.9999999999999" y="440" width="544" height="5" fill="#333" opacity="0.5"/><rect x="160" y="539" width="480" height="5" fill="#333" opacity="0.55"/><rect x="927.9999999999999" y="495" width="400" height="5" fill="#333" opacity="0.5"/><rect x="160" y="588.4999999999999" width="544" height="5" fill="#333" opacity="0.55"/><rect x="927.9999999999999" y="550" width="448.00000000000006" height="5" fill="#333" opacity="0.5"/><rect x="160" y="638.0000000000001" width="416" height="5" fill="#333" opacity="0.55"/><rect x="927.9999999999999" y="605" width="496" height="5" fill="#333" opacity="0.5"/><rect x="160" y="687.5" width="480" height="5" fill="#333" opacity="0.55"/><rect x="927.9999999999999" y="660.0000000000001" width="544" height="5" fill="#333" opacity="0.5"/><rect x="160" y="736.9999999999999" width="544" height="5" fill="#333" opacity="0.55"/><rect x="927.9999999999999" y="715" width="400" height="5" fill="#333" opacity="0.5"/><rect x="927.9999999999999" y="616.0000000000001" width="432" height="187" fill="#868680" opacity="0.35"/><text x="160" y="913" font-size="32" fill="#111" font-family="Inter, Arial, sans-serif" font-weight="700">024</text><text x="1392" y="913" font-size="32" fill="#111" font-family="Inter, Arial, sans-serif" font-weight="700">025</text>
</svg>
