<?xml version="1.0" encoding="UTF-8"?>
<svg xmlns="http://www.w3.org/2000/svg" width="1080" height="1440" viewBox="0 0 1080 1440" role="img" aria-label="VERDE Recipe card">
  <title>VERDE - Recipe card</title>
  <desc>Original portfolio concept visual for VERDE.</desc>
  <rect x="0" y="0" width="1080" height="1440" fill="#f2e2c6"/><rect x="36" y="36" width="1008" height="1368" fill="none" stroke="#39452b" stroke-width="1" opacity="0.18"/><line x1="129.6" y1="0" x2="129.6" y2="1440" stroke="#39452b" stroke-width="1" opacity="0.08"/><line x1="540" y1="0" x2="540" y2="1440" stroke="#39452b" stroke-width="1" opacity="0.06"/><line x1="950.4" y1="0" x2="950.4" y2="1440" stroke="#39452b" stroke-width="1" opacity="0.08"/><line x1="0" y1="259.2" x2="1080" y2="259.2" stroke="#39452b" stroke-width="1" opacity="0.08"/><line x1="0" y1="1180.8" x2="1080" y2="1180.8" stroke="#39452b" stroke-width="1" opacity="0.08"/><circle cx="918" cy="259.2" r="237.6" fill="#9a6a3a" opacity="0.08"/><circle cx="172.8" cy="1209.6" r="194.4" fill="#fff8ec" opacity="0.08"/><rect x="54" y="72" width="172.8" height="4" fill="#9a6a3a" opacity="0.75"/><rect x="298.944" y="259.2" width="93.312" height="142.84799999999998" fill="#d0a562" opacity="0.8" rx="6"/><rect x="267.84000000000003" y="366.336" width="155.51999999999998" height="732.0959999999999" fill="#39452b" stroke="#39452b" stroke-width="2" opacity="0.98" rx="24"/><rect x="288.576" y="634.1759999999999" width="114.048" height="232.128" fill="#39452b" opacity="0.95"/><text x="345.6" y="732.384" font-size="22" fill="#f2e2c6" font-family="Cormorant Garamond, Georgia, serif" font-weight="600" text-anchor="middle" letter-spacing="2">VERDE</text><text x="345.6" y="794.8799999999999" font-size="12" fill="#f2e2c6" font-family="Inter, Arial, sans-serif" font-weight="700" text-anchor="middle" letter-spacing="3">EAU DE PARFUM</text><text x="345.6" y="839.52" font-size="12" fill="#f2e2c6" font-family="Inter, Arial, sans-serif" font-weight="700" text-anchor="middle" letter-spacing="2">50 ML</text><rect x="262.656" y="1098.4319999999998" width="165.888" height="12" fill="#d0a562" opacity="0.35" rx="12"/><rect x="550.8" y="403.20000000000005" width="302.40000000000003" height="518.4" fill="#fff8ec" stroke="#9a6a3a" stroke-width="3"/><text x="702" y="604.8" font-size="59.4" fill="#39452b" font-family="Cormorant Garamond, Georgia, serif" font-weight="600" text-anchor="middle" letter-spacing="4">VERDE</text><text x="702" y="720" font-size="19.439999999999998" fill="#9a6a3a" font-family="Inter, Arial, sans-serif" font-weight="800" text-anchor="middle" letter-spacing="2">EXTRA VIRGIN OLIVE OIL</text><text x="702" y="806.4000000000001" font-size="17.28" fill="#9a6a3a" font-family="Inter, Arial, sans-serif" font-weight="700" text-anchor="middle" letter-spacing="2">HARVEST 2026 / 500 ML</text><circle cx="799.2" cy="446.4" r="59.4" fill="#d0a562" opacity="0.78"/><text x="72" y="1348" font-size="22" fill="#39452b" font-family="Inter, Arial, sans-serif" font-weight="700" letter-spacing="3" opacity="0.7">CONCEPT PROJECT</text><text x="72" y="1386" font-size="30" fill="#39452b" font-family="Inter, Arial, sans-serif" font-weight="500" opacity="0.86">Recipe card</text>
</svg>
